<svg version="1.1" id="Layer_1" xmlns="http://www.w3.org/2000/svg"
    xmlns:xlink="http://www.w3.org/1999/xlink" x="0px" y="0px" width="100%" viewBox="0 0 512 512"
    enable-background="new 0 0 512 512" xml:space="preserve">
<path fill="#4D672C" opacity="1.000000" stroke="none" d="
M513.000000,196.000000 
	C513.000000,301.974243 513.000000,407.448486 513.000000,512.961365 
	C342.400757,512.961365 171.801483,512.961365 1.101111,512.961365 
	C1.101111,342.442444 1.101111,171.884827 1.101111,1.163595 
	C171.666534,1.163595 342.333252,1.163595 513.000000,1.163595 
	C513.000000,65.865143 513.000000,130.682571 513.000000,196.000000 
M50.775478,129.182709 
	C19.411049,181.367004 9.218845,237.515320 19.769083,297.366394 
	C44.906620,439.970703 192.283279,528.255188 330.227020,483.475525 
	C444.436462,446.400513 513.546570,332.090881 493.328003,213.702850 
	C468.298279,67.143326 317.492432,-21.992382 177.155304,27.132044 
	C123.301163,45.983463 81.489143,80.263786 50.775478,129.182709 
z" />
    <path fill="#F6F8F5" opacity="1.000000" stroke="none" d="
M50.957268,128.867874 
	C81.489143,80.263786 123.301163,45.983463 177.155304,27.132044 
	C317.492432,-21.992382 468.298279,67.143326 493.328003,213.702850 
	C513.546570,332.090881 444.436462,446.400513 330.227020,483.475525 
	C192.283279,528.255188 44.906620,439.970703 19.769083,297.366394 
	C9.218845,237.515320 19.411049,181.367004 50.957268,128.867874 
M481.536163,200.210938 
	C447.458557,67.319412 314.083832,-7.170869 184.376266,34.246014 
	C66.518799,71.879036 -0.814967,198.839279 33.758041,318.242065 
	C65.555542,428.059265 170.961716,498.320679 284.549744,483.923401 
	C361.718750,474.142242 420.006317,434.252747 458.590912,366.844788 
	C488.300385,314.941864 494.617493,259.171326 481.536163,200.210938 
z" />
    <path fill="#4D672C" opacity="1.000000" stroke="none" d="
M481.634125,200.615509 
	C494.617493,259.171326 488.300385,314.941864 458.590912,366.844788 
	C420.006317,434.252747 361.718750,474.142242 284.549744,483.923401 
	C170.961716,498.320679 65.555542,428.059265 33.758041,318.242065 
	C-0.814967,198.839279 66.518799,71.879036 184.376266,34.246014 
	C314.083832,-7.170869 447.458557,67.319412 481.634125,200.615509 
M311.129517,152.300705 
	C306.694733,146.064316 302.745972,139.404190 297.741760,133.664261 
	C274.975494,107.550835 245.205200,105.488022 220.518265,128.026810 
	C218.063416,130.268036 215.478394,132.542130 213.669891,135.274872 
	C210.929764,139.415359 207.771957,140.326767 202.812332,139.850403 
	C163.629303,136.086823 138.688736,160.581726 141.811722,199.819016 
	C142.256653,205.409271 140.971268,208.782288 136.647781,212.401703 
	C124.975426,222.173279 116.335953,234.162216 114.865417,249.878952 
	C113.193024,267.752930 120.701134,282.315277 133.761826,293.558563 
	C140.400330,299.273285 142.312408,304.741333 141.965530,313.349243 
	C140.562836,348.157898 161.494354,369.239441 196.305374,369.102356 
	C216.263046,369.023743 234.596451,362.624329 252.224060,353.913544 
	C255.211548,352.437256 257.450348,352.639008 260.499207,353.898468 
	C270.942749,358.212585 281.598267,362.013580 292.174377,366.006561 
	C293.325409,366.441132 294.485626,366.851410 295.747314,367.311554 
	C295.373230,368.161407 295.268555,368.676361 294.972412,369.031860 
	C285.233978,380.722687 273.549530,388.894470 257.787079,390.032928 
	C256.280762,390.141724 254.898972,391.974182 253.459381,393.006470 
	C255.024689,394.069855 256.468689,395.654480 258.188324,396.054749 
	C260.025238,396.482330 262.144531,395.916992 264.102142,395.568970 
	C274.941345,393.641998 284.973602,389.117371 291.843384,380.812866 
	C299.611389,371.422516 307.945282,368.757446 320.174286,368.865662 
	C350.753174,369.136230 370.395416,348.512970 371.318665,317.872955 
	C371.463623,313.063599 371.193329,308.194519 370.593414,303.418579 
	C368.577148,287.367004 363.021637,272.421112 355.967255,257.961304 
	C355.227600,256.445221 354.339081,254.311005 354.854523,252.980850 
	C359.704498,240.464813 364.844971,228.061356 370.066498,215.219849 
	C380.178406,223.105301 388.160736,232.889954 391.017151,246.245911 
	C391.502777,248.516541 391.323761,250.968231 392.050873,253.135284 
	C392.576630,254.702209 394.094147,255.936340 395.169403,257.318878 
	C396.197449,255.759354 397.746185,254.312057 398.113037,252.610016 
	C398.511993,250.759125 397.936310,248.648651 397.573029,246.690811 
	C394.710876,231.265381 385.655853,219.790665 373.846649,210.225800 
	C371.196045,208.078918 370.266327,206.028580 370.650238,202.612564 
	C372.068481,189.992935 371.204529,177.560364 365.241577,166.068588 
	C363.121277,161.982361 360.176544,158.264694 357.197266,154.724609 
	C356.442474,153.827789 354.111359,154.257599 352.504578,154.077789 
	C352.584686,155.714722 352.509399,157.381653 352.816711,158.974747 
	C352.951324,159.672806 353.904419,160.190475 354.422729,160.840378 
	C364.193390,173.092560 366.047455,187.171997 364.653900,201.649063 
	C351.835846,196.304016 339.411072,191.236130 327.125641,185.850372 
	C325.663086,185.209213 324.711212,182.945816 323.947449,181.243744 
	C319.727417,171.838928 315.639130,162.375000 311.129517,152.300705 
z" />
    <path fill="#F3F5F1" opacity="1.000000" stroke="none" d="
M311.317627,152.616013 
	C315.639130,162.375000 319.727417,171.838928 323.947449,181.243744 
	C324.711212,182.945816 325.663086,185.209213 327.125641,185.850372 
	C339.411072,191.236130 351.835846,196.304016 364.653900,201.649063 
	C366.047455,187.171997 364.193390,173.092560 354.422729,160.840378 
	C353.904419,160.190475 352.951324,159.672806 352.816711,158.974747 
	C352.509399,157.381653 352.584686,155.714722 352.504578,154.077789 
	C354.111359,154.257599 356.442474,153.827789 357.197266,154.724609 
	C360.176544,158.264694 363.121277,161.982361 365.241577,166.068588 
	C371.204529,177.560364 372.068481,189.992935 370.650238,202.612564 
	C370.266327,206.028580 371.196045,208.078918 373.846649,210.225800 
	C385.655853,219.790665 394.710876,231.265381 397.573029,246.690811 
	C397.936310,248.648651 398.511993,250.759125 398.113037,252.610016 
	C397.746185,254.312057 396.197449,255.759354 395.169403,257.318878 
	C394.094147,255.936340 392.576630,254.702209 392.050873,253.135284 
	C391.323761,250.968231 391.502777,248.516541 391.017151,246.245911 
	C388.160736,232.889954 380.178406,223.105301 370.066498,215.219849 
	C364.844971,228.061356 359.704498,240.464813 354.854523,252.980850 
	C354.339081,254.311005 355.227600,256.445221 355.967255,257.961304 
	C363.021637,272.421112 368.577148,287.367004 370.593414,303.418579 
	C371.193329,308.194519 371.463623,313.063599 371.318665,317.872955 
	C370.395416,348.512970 350.753174,369.136230 320.174286,368.865662 
	C307.945282,368.757446 299.611389,371.422516 291.843384,380.812866 
	C284.973602,389.117371 274.941345,393.641998 264.102142,395.568970 
	C262.144531,395.916992 260.025238,396.482330 258.188324,396.054749 
	C256.468689,395.654480 255.024689,394.069855 253.459381,393.006470 
	C254.898972,391.974182 256.280762,390.141724 257.787079,390.032928 
	C273.549530,388.894470 285.233978,380.722687 294.972412,369.031860 
	C295.268555,368.676361 295.373230,368.161407 295.747314,367.311554 
	C294.485626,366.851410 293.325409,366.441132 292.174377,366.006561 
	C281.598267,362.013580 270.942749,358.212585 260.499207,353.898468 
	C257.450348,352.639008 255.211548,352.437256 252.224060,353.913544 
	C234.596451,362.624329 216.263046,369.023743 196.305374,369.102356 
	C161.494354,369.239441 140.562836,348.157898 141.965530,313.349243 
	C142.312408,304.741333 140.400330,299.273285 133.761826,293.558563 
	C120.701134,282.315277 113.193024,267.752930 114.865417,249.878952 
	C116.335953,234.162216 124.975426,222.173279 136.647781,212.401703 
	C140.971268,208.782288 142.256653,205.409271 141.811722,199.819016 
	C138.688736,160.581726 163.629303,136.086823 202.812332,139.850403 
	C207.771957,140.326767 210.929764,139.415359 213.669891,135.274872 
	C215.478394,132.542130 218.063416,130.268036 220.518265,128.026810 
	C245.205200,105.488022 274.975494,107.550835 297.741760,133.664261 
	C302.745972,139.404190 306.694733,146.064316 311.317627,152.616013 
M274.101471,333.646790 
	C293.145813,320.501617 309.920929,304.891327 324.517578,286.958069 
	C325.903595,285.255219 327.290741,282.909973 327.317627,280.845306 
	C327.546753,263.231506 327.526947,245.613052 327.370209,227.997849 
	C327.354309,226.208237 326.383148,224.004272 325.118866,222.714310 
	C313.018585,210.368301 300.810333,198.126190 288.477020,186.013107 
	C287.064453,184.625732 284.759033,183.637939 282.765991,183.427673 
	C253.338409,180.322800 224.238464,182.105240 195.591171,189.787781 
	C194.410660,190.104370 192.664505,190.803894 192.410446,191.680908 
	C190.690079,197.619736 189.300674,203.654434 187.804260,209.658127 
	C188.372589,210.046936 188.940918,210.435760 189.509247,210.824570 
	C192.690781,207.329819 195.670639,203.612778 199.154831,200.451645 
	C200.513687,199.218796 203.007828,199.237274 204.984848,198.685791 
	C204.563965,200.675125 204.755829,203.163757 203.613724,204.565399 
	C199.201584,209.980118 194.486862,215.166412 189.641144,220.203323 
	C186.422256,223.549194 185.159866,227.398376 185.010345,231.893677 
	C184.772354,239.049179 184.526047,246.214447 183.869568,253.337463 
	C183.740433,254.738571 181.736603,255.966904 180.597366,257.274902 
	C179.629807,255.972595 178.264221,254.795364 177.804855,253.333389 
	C177.330475,251.823639 177.751236,250.037109 177.755478,248.371613 
	C177.764801,244.723160 177.758377,241.074661 177.758377,237.426193 
	C173.876083,241.666367 171.190018,246.244827 168.165634,250.587692 
	C166.248367,253.340759 166.619141,255.483795 168.266388,258.242493 
	C181.359985,280.170929 197.766846,299.258209 216.625076,316.433105 
	C223.594681,322.780548 230.766388,327.084259 240.517456,326.414124 
	C245.141998,326.096313 249.858643,326.452240 254.473633,327.004059 
	C256.210052,327.211670 259.008820,328.655884 259.184082,329.850250 
	C259.658936,333.086395 256.814880,333.143982 254.374512,333.132080 
	C249.479675,333.108154 244.584641,333.124939 239.689697,333.124939 
	C243.780350,336.800964 248.406265,339.555359 252.853226,342.573456 
	C255.366348,344.279083 257.478394,344.498322 260.069977,342.703644 
	C264.447144,339.672485 269.018311,336.921478 274.101471,333.646790 
M206.549347,362.276001 
	C221.455582,360.327209 235.396713,355.501038 249.391006,348.437469 
	C242.397507,343.683594 235.906433,339.675598 229.899933,335.039795 
	C226.171921,332.162567 222.259003,330.784790 217.716522,330.094482 
	C194.337753,326.541595 172.027695,319.769165 151.607803,307.503876 
	C150.820358,307.030914 149.895935,306.785950 149.008560,306.423828 
	C144.902313,320.095154 150.748627,341.165894 161.295853,350.823944 
	C174.020416,362.475800 189.423737,364.084198 206.549347,362.276001 
M349.842072,262.393738 
	C345.754517,268.460510 341.935120,274.733459 337.484924,280.521423 
	C334.531433,284.362732 332.903229,288.338989 332.166901,293.096802 
	C328.574005,316.312683 321.854126,338.504150 309.746704,358.841095 
	C309.216644,359.731476 308.993286,360.804413 308.606659,361.847382 
	C336.996155,367.887909 360.855774,351.587097 364.327881,323.566650 
	C367.050232,301.596710 360.350433,281.484467 349.842072,262.393738 
M293.535767,178.218521 
	C301.437653,179.709717 309.339539,181.200912 317.898560,182.816116 
	C310.753632,162.169647 301.526489,143.671814 284.989441,129.878311 
	C274.099243,120.794815 261.532806,116.659401 247.283295,120.077904 
	C234.445282,123.157784 224.856995,130.918335 216.852554,141.341919 
	C217.823288,141.832199 218.240128,142.148087 218.706512,142.263168 
	C243.384735,148.352814 265.103455,160.381210 285.449921,175.260651 
	C287.474579,176.741302 290.266602,177.172623 293.535767,178.218521 
M144.846802,218.617874 
	C144.405304,217.488495 143.963791,216.359131 143.285065,214.622986 
	C129.900131,225.841904 120.276352,238.362289 121.097610,256.145142 
	C121.850983,272.458008 130.960495,284.138397 143.280548,294.093872 
	C143.891449,293.210938 144.252991,292.858124 144.414810,292.429840 
	C148.931351,280.475830 153.515945,268.545776 157.818924,256.515045 
	C158.375961,254.957581 157.802643,252.745453 157.170837,251.053986 
	C153.220169,240.477249 149.104080,229.962296 144.846802,218.617874 
M192.935196,170.403656 
	C196.710602,162.566635 200.486008,154.729614 204.552612,146.288116 
	C186.900482,144.922073 170.846069,146.873703 158.837708,160.675919 
	C148.426163,172.642792 146.939346,187.056366 148.363464,202.385834 
	C157.281403,198.154312 165.042984,193.073776 173.555344,190.782623 
	C184.445526,187.851486 190.636368,181.908676 192.935196,170.403656 
M265.640778,175.640228 
	C268.185059,175.640228 270.729370,175.640228 273.303406,175.640228 
	C273.227295,175.105286 273.262604,174.876404 273.176056,174.812469 
	C255.560730,161.798981 236.097214,152.783920 214.711502,148.031815 
	C213.566193,147.777328 211.531845,148.414215 210.926102,149.317001 
	C204.063141,159.545319 198.795685,170.547379 194.913437,183.315842 
	C218.348312,177.228638 241.398956,174.966797 265.640778,175.640228 
M313.772339,337.198212 
	C318.983032,324.451385 322.850555,311.337097 324.582886,297.463806 
	C306.837799,317.300079 286.658020,334.076324 263.301117,348.150818 
	C275.118164,354.315979 286.659515,358.319763 298.723053,360.745819 
	C299.891937,360.980896 302.065674,359.438263 302.782318,358.163788 
	C306.524689,351.508301 309.946899,344.672729 313.772339,337.198212 
M150.634171,299.403076 
	C166.983414,310.473480 202.809143,323.550598 213.668823,322.176666 
	C193.423523,304.624023 176.708466,284.418945 162.247253,260.874481 
	C159.340500,268.067261 156.552856,273.943024 154.600708,280.084381 
	C152.660324,286.188690 151.559860,292.559967 150.634171,299.403076 
M331.048096,208.525284 
	C330.838867,224.645370 343.445404,234.186707 350.891205,246.939148 
	C355.531281,235.640167 359.290161,224.328766 362.838531,212.951736 
	C363.189697,211.825745 362.701813,209.636047 361.847260,209.058197 
	C351.526184,202.078812 340.386871,196.789047 327.694733,192.879608 
	C328.881683,198.349670 329.894470,203.017197 331.048096,208.525284 
M172.616653,232.090698 
	C178.097626,226.151337 180.907867,219.171524 181.563156,211.082993 
	C181.922470,206.648148 183.289474,202.295975 184.184738,197.902985 
	C184.487732,196.416229 184.737518,194.918610 185.011627,193.425964 
	C184.574799,192.990158 184.137970,192.554352 183.701141,192.118546 
	C173.111923,197.539642 162.493256,202.905151 151.980530,208.470795 
	C150.967514,209.007111 149.868347,210.927200 150.065445,211.966751 
	C152.382904,224.189911 156.633102,235.742783 162.546677,247.369263 
	C166.031830,242.061523 169.114212,237.367203 172.616653,232.090698 
M339.738495,266.243469 
	C340.798889,264.560303 341.926697,262.915131 342.903046,261.184540 
	C344.193207,258.897675 346.974274,255.808670 346.306641,254.347015 
	C343.525787,248.258820 339.691467,242.651810 336.243530,236.868317 
	C335.909790,237.116714 335.576019,237.365112 335.242249,237.613510 
	C335.242249,248.868942 335.242249,260.124359 335.242249,272.807159 
	C337.145844,270.034607 338.240967,268.439606 339.738495,266.243469 
M324.505920,207.635757 
	C323.415955,202.944504 322.395569,198.235214 321.187592,193.574554 
	C320.881287,192.392868 320.182831,190.627975 319.314911,190.386200 
	C312.961853,188.616577 306.519775,187.166595 300.105774,185.615784 
	C303.949341,190.806046 308.017303,194.932831 312.350006,198.759888 
	C316.700226,202.602341 321.314270,206.146057 325.812683,209.820709 
	C325.537750,210.141876 325.262817,210.463058 324.987885,210.784225 
	C324.889862,209.975037 324.791840,209.165848 324.505920,207.635757 
z" />
    <path fill="#4F692F" opacity="1.000000" stroke="none" d="
M273.804688,333.849731 
	C269.018311,336.921478 264.447144,339.672485 260.069977,342.703644 
	C257.478394,344.498322 255.366348,344.279083 252.853226,342.573456 
	C248.406265,339.555359 243.780350,336.800964 239.689697,333.124939 
	C244.584641,333.124939 249.479675,333.108154 254.374512,333.132080 
	C256.814880,333.143982 259.658936,333.086395 259.184082,329.850250 
	C259.008820,328.655884 256.210052,327.211670 254.473633,327.004059 
	C249.858643,326.452240 245.141998,326.096313 240.517456,326.414124 
	C230.766388,327.084259 223.594681,322.780548 216.625076,316.433105 
	C197.766846,299.258209 181.359985,280.170929 168.266388,258.242493 
	C166.619141,255.483795 166.248367,253.340759 168.165634,250.587692 
	C171.190018,246.244827 173.876083,241.666367 177.758377,237.426193 
	C177.758377,241.074661 177.764801,244.723160 177.755478,248.371613 
	C177.751236,250.037109 177.330475,251.823639 177.804855,253.333389 
	C178.264221,254.795364 179.629807,255.972595 180.597382,257.274902 
	C181.736603,255.966904 183.740433,254.738571 183.869568,253.337463 
	C184.526047,246.214447 184.772354,239.049179 185.010345,231.893677 
	C185.159866,227.398376 186.422256,223.549194 189.641144,220.203323 
	C194.486862,215.166412 199.201584,209.980118 203.613724,204.565399 
	C204.755829,203.163757 204.563965,200.675125 204.984848,198.685791 
	C203.007828,199.237274 200.513687,199.218796 199.154831,200.451645 
	C195.670639,203.612778 192.690781,207.329819 189.509247,210.824570 
	C188.940918,210.435760 188.372589,210.046936 187.804260,209.658127 
	C189.300674,203.654434 190.690079,197.619736 192.410446,191.680908 
	C192.664505,190.803894 194.410660,190.104370 195.591171,189.787781 
	C224.238464,182.105240 253.338409,180.322800 282.765991,183.427673 
	C284.759033,183.637939 287.064453,184.625732 288.477020,186.013107 
	C300.810333,198.126190 313.018585,210.368301 325.118866,222.714310 
	C326.383148,224.004272 327.354309,226.208237 327.370209,227.997849 
	C327.526947,245.613052 327.546753,263.231506 327.317627,280.845306 
	C327.290741,282.909973 325.903595,285.255219 324.517578,286.958069 
	C309.920929,304.891327 293.145813,320.501617 273.804688,333.849731 
M226.006302,290.513092 
	C227.062531,291.324249 228.092285,292.172852 229.178925,292.941010 
	C244.893982,304.050049 265.511841,304.540527 281.896881,294.207520 
	C297.861572,284.139618 306.281708,265.126099 303.086792,246.358322 
	C299.919098,227.750412 285.581573,212.559464 267.138733,208.270477 
	C246.553162,203.483185 224.950989,213.221710 214.955841,231.795135 
	C204.403900,251.403229 208.449890,273.855133 226.006302,290.513092 
z" />
    <path fill="#4F692F" opacity="1.000000" stroke="none" d="
M206.104309,362.332245 
	C189.423737,364.084198 174.020416,362.475800 161.295853,350.823944 
	C150.748627,341.165894 144.902313,320.095154 149.008560,306.423828 
	C149.895935,306.785950 150.820358,307.030914 151.607803,307.503876 
	C172.027695,319.769165 194.337753,326.541595 217.716522,330.094482 
	C222.259003,330.784790 226.171921,332.162567 229.899933,335.039795 
	C235.906433,339.675598 242.397507,343.683594 249.391006,348.437469 
	C235.396713,355.501038 221.455582,360.327209 206.104309,362.332245 
z" />
    <path fill="#4F692F" opacity="1.000000" stroke="none" d="
M350.189606,262.295502 
	C360.350433,281.484467 367.050232,301.596710 364.327881,323.566650 
	C360.855774,351.587097 336.996155,367.887909 308.606659,361.847382 
	C308.993286,360.804413 309.216644,359.731476 309.746704,358.841095 
	C321.854126,338.504150 328.574005,316.312683 332.166901,293.096802 
	C332.903229,288.338989 334.531433,284.362732 337.484924,280.521423 
	C341.935120,274.733459 345.754517,268.460510 350.189606,262.295502 
z" />
    <path fill="#4F692F" opacity="1.000000" stroke="none" d="
M293.119141,178.154739 
	C290.266602,177.172623 287.474579,176.741302 285.449921,175.260651 
	C265.103455,160.381210 243.384735,148.352814 218.706512,142.263168 
	C218.240128,142.148087 217.823288,141.832199 216.852554,141.341919 
	C224.856995,130.918335 234.445282,123.157784 247.283295,120.077904 
	C261.532806,116.659401 274.099243,120.794815 284.989441,129.878311 
	C301.526489,143.671814 310.753632,162.169647 317.898560,182.816116 
	C309.339539,181.200912 301.437653,179.709717 293.119141,178.154739 
z" />
    <path fill="#506930" opacity="1.000000" stroke="none" d="
M144.944794,219.022369 
	C149.104080,229.962296 153.220169,240.477249 157.170837,251.053986 
	C157.802643,252.745453 158.375961,254.957581 157.818924,256.515045 
	C153.515945,268.545776 148.931351,280.475830 144.414810,292.429840 
	C144.252991,292.858124 143.891449,293.210938 143.280548,294.093872 
	C130.960495,284.138397 121.850983,272.458008 121.097610,256.145142 
	C120.276352,238.362289 129.900131,225.841904 143.285065,214.622986 
	C143.963791,216.359131 144.405304,217.488495 144.944794,219.022369 
z" />
    <path fill="#50692F" opacity="1.000000" stroke="none" d="
M192.796967,170.762939 
	C190.636368,181.908676 184.445526,187.851486 173.555344,190.782623 
	C165.042984,193.073776 157.281403,198.154312 148.363464,202.385834 
	C146.939346,187.056366 148.426163,172.642792 158.837708,160.675919 
	C170.846069,146.873703 186.900482,144.922073 204.552612,146.288116 
	C200.486008,154.729614 196.710602,162.566635 192.796967,170.762939 
z" />
    <path fill="#526B32" opacity="1.000000" stroke="none" d="
M265.190063,175.632355 
	C241.398956,174.966797 218.348312,177.228638 194.913437,183.315842 
	C198.795685,170.547379 204.063141,159.545319 210.926102,149.317001 
	C211.531845,148.414215 213.566193,147.777328 214.711502,148.031815 
	C236.097214,152.783920 255.560730,161.798981 273.176056,174.812469 
	C273.262604,174.876404 273.227295,175.105286 273.303406,175.640228 
	C270.729370,175.640228 268.185059,175.640228 265.190063,175.632355 
z" />
    <path fill="#516A31" opacity="1.000000" stroke="none" d="
M313.626404,337.549011 
	C309.946899,344.672729 306.524689,351.508301 302.782318,358.163788 
	C302.065674,359.438263 299.891937,360.980896 298.723053,360.745819 
	C286.659515,358.319763 275.118164,354.315979 263.301117,348.150818 
	C286.658020,334.076324 306.837799,317.300079 324.582886,297.463806 
	C322.850555,311.337097 318.983032,324.451385 313.626404,337.549011 
z" />
    <path fill="#516A31" opacity="1.000000" stroke="none" d="
M150.362625,299.108643 
	C151.559860,292.559967 152.660324,286.188690 154.600708,280.084381 
	C156.552856,273.943024 159.340500,268.067261 162.247253,260.874481 
	C176.708466,284.418945 193.423523,304.624023 213.668823,322.176666 
	C202.809143,323.550598 166.983414,310.473480 150.362625,299.108643 
z" />
    <path fill="#516B31" opacity="1.000000" stroke="none" d="
M330.977661,208.105011 
	C329.894470,203.017197 328.881683,198.349670 327.694733,192.879608 
	C340.386871,196.789047 351.526184,202.078812 361.847260,209.058197 
	C362.701813,209.636047 363.189697,211.825745 362.838531,212.951736 
	C359.290161,224.328766 355.531281,235.640167 350.891205,246.939148 
	C343.445404,234.186707 330.838867,224.645370 330.977661,208.105011 
z" />
    <path fill="#516B31" opacity="1.000000" stroke="none" d="
M172.406616,232.381805 
	C169.114212,237.367203 166.031830,242.061523 162.546677,247.369263 
	C156.633102,235.742783 152.382904,224.189911 150.065445,211.966751 
	C149.868347,210.927200 150.967514,209.007111 151.980530,208.470795 
	C162.493256,202.905151 173.111923,197.539642 183.701141,192.118546 
	C184.137970,192.554352 184.574799,192.990158 185.011627,193.425964 
	C184.737518,194.918610 184.487732,196.416229 184.184738,197.902985 
	C183.289474,202.295975 181.922470,206.648148 181.563156,211.082993 
	C180.907867,219.171524 178.097626,226.151337 172.406616,232.381805 
z" />
    <path fill="#5D7540" opacity="1.000000" stroke="none" d="
M339.537292,266.544037 
	C338.240967,268.439606 337.145844,270.034607 335.242249,272.807159 
	C335.242249,260.124359 335.242249,248.868942 335.242249,237.613510 
	C335.576019,237.365112 335.909790,237.116714 336.243530,236.868317 
	C339.691467,242.651810 343.525787,248.258820 346.306641,254.347015 
	C346.974274,255.808670 344.193207,258.897675 342.903046,261.184540 
	C341.926697,262.915131 340.798889,264.560303 339.537292,266.544037 
z" />
    <path fill="#59713A" opacity="1.000000" stroke="none" d="
M324.599854,207.996216 
	C324.791840,209.165848 324.889862,209.975037 324.987885,210.784225 
	C325.262817,210.463058 325.537750,210.141876 325.812683,209.820709 
	C321.314270,206.146057 316.700226,202.602341 312.350006,198.759888 
	C308.017303,194.932831 303.949341,190.806046 300.105774,185.615784 
	C306.519775,187.166595 312.961853,188.616577 319.314911,190.386200 
	C320.182831,190.627975 320.881287,192.392868 321.187592,193.574554 
	C322.395569,198.235214 323.415955,202.944504 324.599854,207.996216 
z" />
    <path fill="#F2F4F0" opacity="1.000000" stroke="none" d="
M225.730881,290.286224 
	C208.449890,273.855133 204.403900,251.403229 214.955841,231.795135 
	C224.950989,213.221710 246.553162,203.483185 267.138733,208.270477 
	C285.581573,212.559464 299.919098,227.750412 303.086792,246.358322 
	C306.281708,265.126099 297.861572,284.139618 281.896881,294.207520 
	C265.511841,304.540527 244.893982,304.050049 229.178925,292.941010 
	C228.092285,292.172852 227.062531,291.324249 225.730881,290.286224 
M234.213211,271.737152 
	C231.041855,274.383118 227.870499,277.029114 224.699142,279.675079 
	C225.074234,280.120148 225.449310,280.565247 225.824402,281.010315 
	C227.037079,282.660828 228.249741,284.311340 230.007584,286.703827 
	C234.089630,282.271576 236.913269,278.720154 240.279022,275.791809 
	C241.611557,274.632446 244.149139,274.858154 246.138077,274.453247 
	C245.695389,276.325348 245.793839,278.635834 244.702728,279.982605 
	C242.041412,283.267426 238.829071,286.105804 235.397568,289.569061 
	C238.484756,290.931519 240.719940,291.917938 242.955124,292.904388 
	C242.423553,292.201599 241.891998,291.498810 241.360443,290.796021 
	C246.243103,286.782776 251.021027,282.629608 256.075653,278.846161 
	C257.492126,277.785919 259.723328,277.814117 261.580780,277.343048 
	C261.201813,279.339386 261.492737,281.970215 260.316803,283.211670 
	C256.948700,286.767517 252.985733,289.759949 249.256653,292.973907 
	C249.717896,293.544464 250.179123,294.115021 250.640350,294.685547 
	C254.870422,295.342224 258.836884,296.235992 262.218475,291.560425 
	C264.916138,287.830505 268.522614,284.667358 272.110138,281.720673 
	C273.363098,280.691559 275.764435,281.060516 277.641327,280.791016 
	C277.323669,282.528931 277.457550,284.556915 276.574524,285.931702 
	C275.460846,287.665466 273.517212,288.866180 271.501068,290.685333 
	C282.620239,290.548950 295.514099,274.154449 297.059143,259.213074 
	C299.257141,237.957047 285.991913,219.105530 265.509857,214.538574 
	C243.292755,209.584717 224.586853,223.476074 219.295013,238.174622 
	C220.434113,237.666687 221.229813,237.086121 222.085190,236.978088 
	C223.797791,236.761795 225.543045,236.804062 227.274811,236.739594 
	C226.881393,238.483200 226.984146,240.611374 225.992264,241.891113 
	C223.865051,244.635681 221.335968,247.135666 218.673218,249.382355 
	C214.794281,252.655197 215.227310,256.345001 217.137741,261.992706 
	C220.219940,258.484802 222.406845,255.499237 225.132690,253.135117 
	C226.240860,252.174011 228.520905,252.564117 230.267746,252.339432 
	C229.961670,254.069672 230.190338,256.211121 229.240509,257.446350 
	C227.125244,260.197174 224.618881,262.741486 221.909393,264.918854 
	C217.965240,268.088409 218.144287,271.119965 222.666428,275.829407 
	C225.673782,272.260406 228.482697,268.545868 231.754364,265.297394 
	C232.632919,264.425110 234.920425,264.971802 236.561127,264.867126 
	C236.513504,266.385742 236.634964,267.937836 236.343964,269.408295 
	C236.207031,270.100220 235.277161,270.635193 234.213211,271.737152 
z" />
    <path fill="#50692F" opacity="1.000000" stroke="none" d="
M234.459915,271.489197 
	C235.277161,270.635193 236.207031,270.100220 236.343964,269.408295 
	C236.634964,267.937836 236.513504,266.385742 236.561127,264.867126 
	C234.920425,264.971802 232.632919,264.425110 231.754364,265.297394 
	C228.482697,268.545868 225.673782,272.260406 222.666428,275.829407 
	C218.144287,271.119965 217.965240,268.088409 221.909393,264.918854 
	C224.618881,262.741486 227.125244,260.197174 229.240509,257.446350 
	C230.190338,256.211121 229.961670,254.069672 230.267761,252.339447 
	C228.520905,252.564117 226.240860,252.174011 225.132690,253.135117 
	C222.406845,255.499237 220.219940,258.484802 217.137741,261.992706 
	C215.227310,256.345001 214.794281,252.655197 218.673218,249.382355 
	C221.335968,247.135666 223.865051,244.635681 225.992264,241.891113 
	C226.984146,240.611374 226.881393,238.483200 227.274811,236.739594 
	C225.543045,236.804062 223.797791,236.761795 222.085190,236.978088 
	C221.229813,237.086121 220.434113,237.666687 219.295013,238.174622 
	C224.586853,223.476074 243.292755,209.584717 265.509857,214.538574 
	C285.991913,219.105530 299.257141,237.957047 297.059143,259.213074 
	C295.514099,274.154449 282.620239,290.548950 271.501068,290.685333 
	C273.517212,288.866180 275.460846,287.665466 276.574524,285.931702 
	C277.457550,284.556915 277.323669,282.528931 277.641327,280.791016 
	C275.764435,281.060516 273.363098,280.691559 272.110138,281.720673 
	C268.522614,284.667358 264.916138,287.830505 262.218475,291.560425 
	C258.836884,296.235992 254.870422,295.342224 250.640350,294.685547 
	C250.179123,294.115021 249.717896,293.544464 249.256653,292.973907 
	C252.985733,289.759949 256.948700,286.767517 260.316803,283.211670 
	C261.492737,281.970215 261.201813,279.339386 261.580780,277.343048 
	C259.723328,277.814117 257.492126,277.785919 256.075653,278.846161 
	C251.021027,282.629608 246.243103,286.782776 241.360443,290.796021 
	C241.891998,291.498810 242.423553,292.201599 242.955124,292.904388 
	C240.719940,291.917938 238.484756,290.931519 235.397568,289.569061 
	C238.829071,286.105804 242.041412,283.267426 244.702728,279.982605 
	C245.793839,278.635834 245.695389,276.325348 246.138062,274.453247 
	C244.149139,274.858154 241.611557,274.632446 240.279022,275.791809 
	C236.913269,278.720154 234.089630,282.271576 230.007584,286.703827 
	C228.249741,284.311340 227.037079,282.660828 225.824402,281.010315 
	C225.449310,280.565247 225.074234,280.120148 224.699142,279.675079 
	C227.870499,277.029114 231.041855,274.383118 234.459915,271.489197 
z" />
</svg>